<svg id="50585" viewBox="0 0 158 140" xmlns="http://www.w3.org/2000/svg" xmlns:xlink="http://www.w3.org/1999/xlink"><g transform="matrix(1,0,0,1,0,0)"><g id="50585" opacity="1" style="mix-blend-mode:normal"><g><defs><clipPath id="50585_clipPath" x="-50%" y="-50%" width="200%" height="200%"><path d="M0,0h158v0v140v0h-158v0v-140z" fill="white" clip-rule="nonzero"></path></clipPath></defs><g clip-path="url(#50585_clipPath)"><path id="50585_fill_path" d="M0,0h158v0v140v0h-158v0v-140z" fill-rule="nonzero" fill="rgb(255, 255, 255)" fill-opacity="0" style="mix-blend-mode:NORMAL"></path><g transform="matrix(1,0,0,1,50,76)"><g id="50584" opacity="1" style="mix-blend-mode:normal"><g><g><g transform="matrix(1,0,0,1,0,0)"><g id="50574" opacity="1" style="mix-blend-mode:normal"><g><g><path id="50574_fill_path" d="M58,29c0,1.61 -0.13,3.19 -0.39,4.73c-0.71,4.39 -2.42,8.45 -4.89,11.94v0.01c-4.24,6.03 -10.73,10.37 -18.24,11.8c-2.29572,0.43864 -4.63583,0.59979 -6.97,0.48h-0.07c-0.47,-0.03 -0.94,-0.06 -1.41,-0.11c-0.04,0 -0.08,-0.01 -0.12,-0.01c-0.39,-0.04 -0.78,-0.08999 -1.17,-0.14999c-0.11,-0.02 -0.23,-0.03 -0.34,-0.05c-0.3,-0.05 -0.59,-0.1 -0.89,-0.16c-0.47,-0.09 -0.94,-0.19001 -1.41,-0.31001c-0.19,-0.04 -0.39,-0.09 -0.58,-0.14c-0.26,-0.07 -0.52,-0.15 -0.78,-0.23c-0.23,-0.07 -0.47,-0.14 -0.71,-0.22c-0.23681,-0.06948 -0.47038,-0.14956 -0.7,-0.24l-0.57,-0.21c-0.11,-0.03 -0.21,-0.07 -0.32,-0.12c-0.9191,-0.3667 -1.82013,-0.77717 -2.7,-1.23c-0.23,-0.12 -0.45,-0.24 -0.68,-0.37c-0.26,-0.14 -0.51,-0.28 -0.76,-0.43c-0.28,-0.17 -0.56,-0.33 -0.84,-0.51c-0.08,-0.05 -0.16,-0.11 -0.24,-0.16c-0.39,-0.25 -0.78,-0.52 -1.15,-0.79c-0.32,-0.22 -0.63,-0.46 -0.93,-0.69c-0.02908,-0.02042 -0.0559,-0.04389 -0.08,-0.07c-0.27,-0.21 -0.53,-0.42 -0.78,-0.64c-0.13,-0.1 -0.26,-0.21 -0.38,-0.32l-0.29,-0.26c-0.02,-0.01 -0.03,-0.02 -0.04,-0.03c-0.03,-0.03 -0.06,-0.06 -0.09,-0.08c-0.02,-0.01 -0.03,-0.03 -0.04,-0.04c-0.01787,-0.00786 -0.03214,-0.02213 -0.04,-0.04c-0.12806,-0.10808 -0.2515,-0.22152 -0.37,-0.34c-0.13,-0.12 -0.25,-0.23 -0.36,-0.35c-0.02,-0.02 -0.04,-0.04 -0.05,-0.06c-0.1,-0.1 -0.2,-0.19 -0.3,-0.28c-0.152,-0.152 -0.292,-0.323 -0.44,-0.48l-0.02,-0.02l0.002,0.001c-0.334,-0.354 -0.67,-0.705 -0.992,-1.081c-0.24,-0.28 -0.48,-0.57 -0.71,-0.87c-3.02766,-3.85595 -5.02369,-8.41929 -5.8,-13.26c-0.24,-1.5 -0.36,-3.04 -0.36,-4.61c0,-6.17 1.92,-11.89 5.22,-16.59c3.19,-4.58 7.68,-8.19 12.93,-10.3c3.35,-1.37 7.01,-2.11 10.85,-2.11c3.83,0 7.49,0.74 10.83,2.1c2.52,1 4.86,2.36 6.97,4.02c0.56,0.43 1.11,0.89 1.64,1.38h0.01c0.53,0.48 1.04,0.98 1.53,1.5c0.75,0.77 1.44,1.58 2.09,2.44c0.21,0.28 0.43,0.57 0.63,0.86v0.01c0,0 0,-0.01 0.01,0c0.5,0.69 0.97,1.42 1.39,2.17c0.15,0.25 0.29,0.5 0.43,0.76c0.17,0.31 0.33,0.61 0.47,0.92c0.11,0.21 0.21,0.42 0.31,0.64c0.16,0.32 0.3,0.64 0.43,0.96c0.16,0.36 0.3,0.72 0.43,1.09c0.11,0.28 0.21,0.56 0.3,0.85c0.08,0.23 0.16,0.47 0.24,0.72c0.1,0.32 0.19,0.64 0.28,0.96c0.06,0.23 0.12,0.45 0.17,0.68c0.18,0.71 0.32999,1.42 0.43999,2.15c0.04,0.21 0.07,0.42 0.1,0.64c0.05,0.32 0.09,0.65 0.12,0.97c0.02,0.14 0.04,0.28 0.05,0.41c0.03,0.35 0.06,0.7 0.07,1.06c0.02,0.15 0.03,0.29 0.03,0.44c0.02,0.42 0.03,0.84 0.03,1.27z" fill-rule="nonzero" fill="rgb(255, 255, 255)" fill-opacity="1" style="mix-blend-mode:NORMAL"></path></g></g></g></g><g transform="matrix(1,0,0,1,7.8604,4.04)"><g id="50575" opacity="1" style="mix-blend-mode:normal"><g><g><path id="50575_fill_path" d="M50.14,24.96c0,1.61 -0.13,3.19 -0.39,4.73c-0.71,4.39 -2.42,8.45 -4.89,11.94v0.01c-4.24,6.03 -10.73,10.37 -18.24,11.8c-2.29572,0.43864 -4.63583,0.59979 -6.97,0.48h-0.07c-0.47,-0.03 -0.94,-0.06 -1.41,-0.11c-0.04,0 -0.08,-0.01 -0.12,-0.01c-0.39,-0.04 -0.78,-0.08999 -1.17,-0.14999c-0.11,-0.02 -0.23,-0.03 -0.34,-0.05c-0.3,-0.05 -0.59,-0.1 -0.89,-0.16c-0.47,-0.09 -0.94,-0.19001 -1.41,-0.31001c-0.19,-0.04 -0.39,-0.09 -0.58,-0.14c-0.26,-0.07 -0.52,-0.15 -0.78,-0.23c-0.23,-0.07 -0.47,-0.14 -0.71,-0.22c-0.23681,-0.06948 -0.47038,-0.14956 -0.7,-0.24l-0.57,-0.21c-0.11,-0.03 -0.21,-0.07 -0.32,-0.12c-0.39,-0.16 -0.78,-0.32 -1.16,-0.49c-0.26,-0.12 -0.52,-0.24 -0.77,-0.36c-0.26,-0.12 -0.51,-0.25 -0.77,-0.38c-0.23,-0.12 -0.45,-0.24 -0.68,-0.37c-0.26,-0.14 -0.51,-0.28 -0.76,-0.43c-0.28,-0.17 -0.56,-0.33 -0.84,-0.51c-0.08,-0.05 -0.16,-0.11 -0.24,-0.16c-0.39,-0.25 -0.78,-0.52 -1.15,-0.79c-0.32,-0.22 -0.63,-0.46 -0.93,-0.69c-0.02908,-0.02042 -0.0559,-0.04389 -0.08,-0.07c-0.27,-0.21 -0.53,-0.42 -0.78,-0.64c-0.28283,-0.24006 -0.56284,-0.48341 -0.84,-0.73c-0.01787,-0.00786 -0.03214,-0.02213 -0.04,-0.04c-0.26,-0.25 -0.53,-0.49 -0.78,-0.75c-0.26,-0.26 -0.51,-0.52 -0.76,-0.78c3.99,2.34 8.6,3.77 13.52,3.95c0.38,0.02 0.76,0.03 1.14,0.03c6.76,0 12.99,-2.31 17.92,-6.2c5.99,-4.71 10.08,-11.73 10.92,-19.72c0.11,-1.01 0.16,-2.04 0.16,-3.08c0,-2.07 -0.22,-4.08 -0.63,-6.02v-0.01c-1.08982,-5.14193 -3.56192,-9.88906 -7.15,-13.73c1.06,0.63 2.09,1.33 3.06,2.08c0.56,0.44 1.11,0.9 1.64,1.38c0,0 0,-0.01 0.01,0c0.53,0.49 1.04,0.98 1.53,1.5c0.98,1.03 1.9,2.14 2.72,3.31c0.5,0.7 0.97,1.42 1.4,2.17c0.15,0.25 0.29,0.5 0.43,0.76c0.17,0.31 0.33,0.61 0.47,0.92c0.11,0.21 0.21,0.42 0.31,0.64c0.16,0.32 0.3,0.64 0.43,0.96c0.16,0.36 0.3,0.72 0.43,1.09c0.11,0.28 0.21,0.56 0.3,0.85c0.08,0.23 0.16,0.47 0.24,0.72c0.1,0.32 0.19,0.64 0.28,0.96c0.06,0.23 0.12,0.45 0.17,0.68c0.18,0.71 0.32999,1.42 0.43999,2.15c0.04,0.21 0.07,0.42 0.1,0.64c0.05,0.32 0.09,0.65 0.12,0.97c0.02,0.14 0.04,0.28 0.05,0.41c0.03,0.35 0.06,0.7 0.07,1.06c0.02,0.15 0.03,0.29 0.03,0.44c0.02,0.42 0.03,0.84 0.03,1.27z" fill-rule="nonzero" fill="rgb(225, 222, 249)" fill-opacity="1" style="mix-blend-mode:NORMAL"></path></g></g></g></g><g transform="matrix(1,0,0,1,0,0)"><g id="50576" opacity="1" style="mix-blend-mode:normal"><g><g><g style="mix-blend-mode:NORMAL"><path id="50576_stroke_path" d="M58,29c0,1.61 -0.13,3.19 -0.39,4.73c-0.71,4.39 -2.42,8.45 -4.89,11.94v0.01c-4.24,6.03 -10.73,10.37 -18.24,11.8c-2.29572,0.43864 -4.63583,0.59979 -6.97,0.48h-0.07c-0.47,-0.03 -0.94,-0.06 -1.41,-0.11c-0.04,0 -0.08,-0.01 -0.12,-0.01c-0.39,-0.04 -0.78,-0.08999 -1.17,-0.14999c-0.11,-0.02 -0.23,-0.03 -0.34,-0.05c-0.3,-0.05 -0.59,-0.1 -0.89,-0.16c-0.47,-0.09 -0.94,-0.19001 -1.41,-0.31001c-0.19,-0.04 -0.39,-0.09 -0.58,-0.14c-0.26,-0.07 -0.52,-0.15 -0.78,-0.23c-0.23,-0.07 -0.47,-0.14 -0.71,-0.22c-0.23681,-0.06948 -0.47038,-0.14956 -0.7,-0.24l-0.57,-0.21c-0.11,-0.03 -0.21,-0.07 -0.32,-0.12c-0.9191,-0.3667 -1.82013,-0.77717 -2.7,-1.23c-0.23,-0.12 -0.45,-0.24 -0.68,-0.37c-0.26,-0.14 -0.51,-0.28 -0.76,-0.43c-0.28,-0.17 -0.56,-0.33 -0.84,-0.51c-0.08,-0.05 -0.16,-0.11 -0.24,-0.16c-0.39,-0.25 -0.78,-0.52 -1.15,-0.79c-0.32,-0.22 -0.63,-0.46 -0.93,-0.69c-0.02908,-0.02042 -0.0559,-0.04389 -0.08,-0.07c-0.27,-0.21 -0.53,-0.42 -0.78,-0.64c-0.13,-0.1 -0.26,-0.21 -0.38,-0.32l-0.29,-0.26c-0.02,-0.01 -0.03,-0.02 -0.04,-0.03c-0.03,-0.03 -0.06,-0.06 -0.09,-0.08c-0.02,-0.01 -0.03,-0.03 -0.04,-0.04c-0.01787,-0.00786 -0.03214,-0.02213 -0.04,-0.04c-0.12806,-0.10808 -0.2515,-0.22152 -0.37,-0.34c-0.13,-0.12 -0.25,-0.23 -0.36,-0.35c-0.02,-0.02 -0.04,-0.04 -0.05,-0.06c-0.1,-0.1 -0.2,-0.19 -0.3,-0.28c-0.152,-0.152 -0.292,-0.323 -0.44,-0.48l-0.02,-0.02l0.002,0.001c-0.334,-0.354 -0.67,-0.705 -0.992,-1.081c-0.24,-0.28 -0.48,-0.57 -0.71,-0.87c-3.02766,-3.85595 -5.02369,-8.41929 -5.8,-13.26c-0.24,-1.5 -0.36,-3.04 -0.36,-4.61c0,-6.17 1.92,-11.89 5.22,-16.59c3.19,-4.58 7.68,-8.19 12.93,-10.3c3.35,-1.37 7.01,-2.11 10.85,-2.11c3.83,0 7.49,0.74 10.83,2.1c2.52,1 4.86,2.36 6.97,4.02c0.56,0.43 1.11,0.89 1.64,1.38h0.01c0.53,0.48 1.04,0.98 1.53,1.5c0.75,0.77 1.44,1.58 2.09,2.44c0.21,0.28 0.43,0.57 0.63,0.86v0.01c0,0 0,-0.01 0.01,0c0.5,0.69 0.97,1.42 1.39,2.17c0.15,0.25 0.29,0.5 0.43,0.76c0.17,0.31 0.33,0.61 0.47,0.92c0.11,0.21 0.21,0.42 0.31,0.64c0.16,0.32 0.3,0.64 0.43,0.96c0.16,0.36 0.3,0.72 0.43,1.09c0.11,0.28 0.21,0.56 0.3,0.85c0.08,0.23 0.16,0.47 0.24,0.72c0.1,0.32 0.19,0.64 0.28,0.96c0.06,0.23 0.12,0.45 0.17,0.68c0.18,0.71 0.32999,1.42 0.43999,2.15c0.04,0.21 0.07,0.42 0.1,0.64c0.05,0.32 0.09,0.65 0.12,0.97c0.02,0.14 0.04,0.28 0.05,0.41c0.03,0.35 0.06,0.7 0.07,1.06c0.02,0.15 0.03,0.29 0.03,0.44c0.02,0.42 0.03,0.84 0.03,1.27z" fill="none" stroke="rgb(14, 126, 194)" stroke-width="2" stroke-linecap="round" stroke-linejoin="round" stroke-dasharray="0 0" stroke-opacity="1"></path></g></g></g></g></g><g transform="matrix(1,0,0,1,0,0)"><g id="50577" opacity="1" style="mix-blend-mode:normal"><g><g><path id="50577_fill_path" d="M27.237,21.073l-6.156,4.472c-0.51256,0.37235 -0.89407,0.89741 -1.08988,1.49992c-0.19581,0.60251 -0.19585,1.25154 -0.00012,1.85408l2.352,7.236c0.19576,0.60251 0.57722,1.12759 1.08973,1.49998c0.51251,0.37239 1.12975,0.57298 1.76327,0.57302h7.608c0.63369,0.00017 1.25115,-0.20032 1.76386,-0.57273c0.51271,-0.37241 0.89433,-0.8976 1.09014,-1.50027l2.35,-7.236c0.19573,-0.60254 0.19569,-1.25157 -0.00012,-1.85408c-0.19581,-0.60251 -0.57733,-1.12757 -1.08988,-1.49992l-6.155,-4.472c-0.51248,-0.37222 -1.12961,-0.57269 -1.763,-0.57269c-0.63339,0 -1.25052,0.20047 -1.763,0.57269zM39.28,3.18l-8.41,4.12c-0.59,0.28 -1.23,0.42 -1.87,0.41c-0.57,-0.01 -1.14,-0.14 -1.68,-0.39l-8.61,-4.1c-0.42,-0.2 -0.64,-0.67 -0.56,-1.11c3.35,-1.37 7.01,-2.11 10.85,-2.11c3.83,0 7.49,0.74 10.83,2.1c0.08,0.43 -0.13,0.88 -0.55,1.08zM23.51,57.48c-0.47,-0.09 -0.94,-0.19001 -1.41,-0.31001c-0.19,-0.04 -0.39,-0.09 -0.58,-0.14c-0.26,-0.07 -0.52,-0.15 -0.78,-0.23c-0.23,-0.07 -0.47,-0.14 -0.71,-0.22c-0.23681,-0.06948 -0.47038,-0.14956 -0.7,-0.24l-0.57,-0.21c-0.11,-0.03 -0.21,-0.07 -0.32,-0.12c-0.39,-0.16 -0.78,-0.32 -1.16,-0.49c-0.522,-0.23 -1.033,-0.48 -1.539,-0.741c-0.23,-0.118 -0.455,-0.242 -0.681,-0.366c-0.256,-0.14 -0.51,-0.285 -0.76,-0.433c-0.28284,-0.1646 -0.56288,-0.33396 -0.84,-0.508c-0.082,-0.052 -0.161,-0.108 -0.242,-0.161c-3.13175,-2.02705 -5.84381,-4.63827 -7.988,-7.691c0.19,-0.34 0.58,-0.55 1.01,-0.5l9.34,1.14c0.64,0.08 1.24,0.3 1.76,0.65c0.49,0.33 0.91,0.76 1.22,1.27l2.82,4.59l2.19,3.58c0.22,0.36 0.19,0.81 -0.06,1.13zM8.16,24.37c-0.14375,0.5875 -0.41329,1.13681 -0.79,1.61l-5.9,7.3c-0.28,0.34 -0.73,0.46 -1.11,0.33c-0.24,-1.5 -0.36,-3.04 -0.36,-4.61c0,-6.17 1.92,-11.89 5.22,-16.59c0.42,0.05 0.79,0.35 0.88,0.79l2.08,9.33c0.14,0.61 0.13,1.24 -0.02,1.84zM52.72,45.67v0.01c-4.24,6.03 -10.73,10.37 -18.24,11.8c-0.26,-0.32 -0.29,-0.78 -0.07,-1.15l4.99,-8.14c0.32125,-0.52275 0.7558,-0.96667 1.27159,-1.29899c0.51578,-0.33232 1.09962,-0.54454 1.70841,-0.62101l9.31,-1.14c0.44,-0.05 0.84,0.18 1.03,0.54zM58,29c0,1.61 -0.13,3.19 -0.39,4.73c-0.18273,0.04117 -0.37336,0.0302 -0.55016,-0.03168c-0.1768,-0.06188 -0.33266,-0.17217 -0.44984,-0.31831l-5.25,-6.5l-0.73,-0.9c-0.38687,-0.47639 -0.66,-1.03474 -0.79863,-1.63256c-0.13863,-0.59783 -0.13909,-1.2194 -0.00137,-1.81743l1.06,-4.75v-0.01l1.04,-4.69c0.08,-0.39 0.39,-0.69 0.77,-0.77c0,-0.01 0,-0.01 0.01,0c0.5,0.69 0.97,1.42 1.39,2.17c0.15,0.25 0.29,0.5 0.43,0.76c0.17,0.31 0.33,0.61 0.47,0.92c0.11,0.21 0.21,0.42 0.31,0.64c0.16,0.32 0.3,0.64 0.43,0.96c0.16,0.36 0.3,0.72 0.43,1.09c0.11,0.28 0.21,0.56 0.3,0.85c0.08,0.23 0.16,0.47 0.24,0.72c0.1,0.32 0.19,0.64 0.28,0.96c0.06,0.23 0.12,0.45 0.17,0.68c0.18,0.71 0.32999,1.42 0.43999,2.15c0.04,0.21 0.07,0.42 0.1,0.64c0.05,0.32 0.09,0.65 0.12,0.97c0.02,0.14 0.04,0.28 0.05,0.41c0.03,0.35 0.06,0.7 0.07,1.06c0.02,0.15 0.03,0.29 0.03,0.44c0.02,0.42 0.03,0.84 0.03,1.27z" fill-rule="nonzero" fill="rgb(14, 126, 194)" fill-opacity="1" style="mix-blend-mode:NORMAL"></path></g></g></g></g><g transform="matrix(1,0,0,1,8.1641,7.7119)"><g id="50578" opacity="1" style="mix-blend-mode:normal"><g><g><g style="mix-blend-mode:NORMAL"><path id="50578_stroke_path" d="M20.836,0v12.788M29.825,19.278l11.824,-2.663M26.427,29.905l6.047,9.296M15.23,29.894l-6.051,9.307M11.837,19.307l-11.837,-2.646" fill="none" stroke="rgb(14, 126, 194)" stroke-width="2" stroke-linecap="round" stroke-linejoin="round" stroke-dasharray="0 0" stroke-opacity="1"></path></g></g></g></g></g></g></g></g></g></g></g></g></g><animateTransform href="#50584" attributeName="transform" type="translate" values="0 0;0 -57.998400000000004;0 0;0 -19.139499999999998;0 0" dur="1.5s" repeatCount="indefinite" calcMode="spline" keyTimes="0;0.3;0.6;0.8;1" keySplines="0.65 0 0.35 1;0.65 0 1 1;0 0 0.35 1;0.65 0 0.35 1" additive="sum" fill="freeze"></animateTransform><animateTransform href="#50584" attributeName="transform" type="rotate" values="0 29.0002 28.9992;-360 29.0002 28.9992" dur="1.5s" repeatCount="indefinite" calcMode="spline" keyTimes="0;1" keySplines="0.5 0.35 0.15 1" additive="sum" fill="freeze"></animateTransform></svg>